<svg width="186" height="139" viewBox="0 0 186 139" fill="none" xmlns="http://www.w3.org/2000/svg">
<path d="M136.976 139H0C3.24778 113.06 21.8909 91.1902 45.3845 83.0707C32.4145 75.7738 23.4937 61.1799 23.4937 44.9832C23.4937 20.667 43.7606 0.400024 68.0768 0.400024C92.393 0.400024 112.66 20.667 112.66 44.9832C112.66 61.201 103.739 75.7738 90.7691 83.0707C115.085 91.1691 132.927 113.06 136.976 139Z" fill="#9E9E9E"/>
<path d="M178.986 60.5472H160.723V42.2837C160.723 38.9094 158.002 36.1888 154.628 36.1888H148.512C145.138 36.1888 142.417 38.9094 142.417 42.2837V60.5472H124.154C120.779 60.5472 118.059 63.2677 118.059 66.642V72.758C118.059 76.1323 120.779 78.8528 124.154 78.8528H142.417V97.1163C142.417 100.491 145.138 103.211 148.512 103.211H154.628C158.002 103.211 160.723 100.491 160.723 97.1163V78.8528H178.986C182.361 78.8528 185.081 76.1323 185.081 72.758V66.642C185.081 63.2677 182.361 60.5472 178.986 60.5472Z" fill="#9E9E9E"/>
</svg>
