<svg width="218" height="210" viewBox="0 0 218 210" fill="none" xmlns="http://www.w3.org/2000/svg">
<path d="M104.402 0.102372C104.078 0.13649 102.971 0.255905 101.932 0.358261C90.0102 1.50123 77.5773 6.38019 67.8695 13.7157C63.9013 16.7011 58.7748 21.6483 55.8284 25.3331C43.7533 40.4135 38.5247 59.3493 41.2327 78.2169C43.5489 94.355 51.5195 109.214 63.5266 119.807C65.928 121.923 69.3172 124.499 71.6675 126.034L73.2514 127.058L72.3488 127.262C69.9303 127.825 64.31 129.395 61.6531 130.265C33.262 139.443 12.3306 156.383 4.00234 176.888C1.44766 183.183 0 190.331 0 196.694C0 198.485 0.562031 207.578 0.783438 209.266L0.868594 210H109H217.131L217.217 209.266C217.438 207.595 218 198.502 218 196.779C218 191.388 216.978 185.383 215.156 180.061C207.73 158.293 186.782 140.381 157.284 130.589C154.014 129.497 147.729 127.689 145.958 127.348C145.634 127.279 145.26 127.177 145.14 127.109C145.021 127.041 145.839 126.375 147.354 125.335C153.758 121.002 159.123 115.884 163.704 109.777C165.356 107.576 166.855 105.307 167.809 103.618C168.218 102.885 168.933 101.622 169.376 100.82C170.534 98.8075 172.135 95.225 173.276 92.1714C177.398 80.9976 178.505 68.7319 176.444 56.7222C175.183 49.3696 172.322 41.3688 168.592 34.7328C167.162 32.208 164.352 28.0626 162.376 25.589C160.026 22.6377 154.865 17.4687 151.919 15.1146C149.534 13.2039 145.345 10.355 142.977 9.00733C136.557 5.3737 129.54 2.7295 122.37 1.27946C118.112 0.409439 115.387 0.15355 110.022 0.0853123C107.263 0.0511937 104.725 0.068253 104.402 0.102372Z" fill="#909090"/>
</svg>
