<svg width="32" height="34" viewBox="0 0 32 34" fill="none" xmlns="http://www.w3.org/2000/svg">
<path d="M10.4903 0.63351C7.85965 0.835475 5.45652 1.91433 3.57748 3.73713C1.0593 6.17861 -0.144822 9.59668 0.292343 13.0684C0.691161 16.2488 2.46283 19.1018 5.14718 20.8888C5.64059 21.2186 5.84255 21.3362 6.34875 21.5893C7.50429 22.1697 8.66495 22.5148 10.0429 22.6861C10.5721 22.75 11.9935 22.75 12.5227 22.6861C13.5556 22.5582 14.4453 22.3333 15.3733 21.9677C16.015 21.7172 16.9072 21.2442 17.4671 20.8607L17.6716 20.7227L20.4198 23.4658C30.2241 33.2496 30.0579 33.0835 30.2062 33.1678C30.6894 33.4363 31.2569 33.3596 31.6455 32.971C32.0239 32.5926 32.1057 32.0532 31.8603 31.5572C31.8066 31.4473 30.6792 30.3096 25.6428 25.2707C19.9878 19.6131 19.4969 19.1146 19.5276 19.0712C19.5481 19.0456 19.6299 18.951 19.7066 18.859C21.5319 16.7217 22.4881 13.9325 22.3424 11.1613C22.2605 9.60179 21.9205 8.25706 21.2686 6.90722C20.8366 6.01499 20.3994 5.33496 19.7552 4.55522C19.4842 4.22798 18.7453 3.48915 18.4155 3.2156C16.6592 1.76094 14.6753 0.914727 12.4435 0.669301C11.9987 0.620727 10.9147 0.600275 10.4903 0.63351ZM12.4844 3.05965C14.4708 3.36132 16.199 4.24332 17.5514 5.65196C18.8706 7.02226 19.6708 8.70445 19.929 10.6397C19.9904 11.1153 19.9904 12.2197 19.929 12.7105C19.7909 13.774 19.5251 14.6484 19.0547 15.5866C18.2954 17.1026 17.0631 18.4013 15.5778 19.2476C13.1133 20.6511 10.0736 20.7559 7.51963 19.5237C5.02702 18.3221 3.25791 16.0366 2.73127 13.3369C2.63667 12.846 2.60088 12.5111 2.58554 11.918C2.5702 11.2584 2.59577 10.8366 2.69292 10.2537C3.10452 7.77132 4.58986 5.57271 6.75268 4.25099C7.91078 3.54028 9.14302 3.14146 10.6181 2.99829C10.6744 2.99318 11.0374 2.99062 11.4234 2.99574C11.9782 3.00341 12.2006 3.01619 12.4844 3.05965Z" fill="#909090"/>
</svg>
